<svg xmlns="http://www.w3.org/2000/svg" xmlns:xlink="http://www.w3.org/1999/xlink" width="605" height="601" x="0" y="0" enable-background="new -.202 7.28 605 601" version="1.1" viewBox="-0.202 7.28 605 601" xml:space="preserve"><g><defs><rect id="SVGID_26_" width="600" height="620.28" x="1.798"/></defs><clipPath id="SVGID_27_"><use overflow="visible" xlink:href="#SVGID_26_"/></clipPath><g clip-path="url(#SVGID_27_)"><text fill="#CDCCCC" font-family="'Arial-BoldMT'" font-size="21.058" transform="matrix(0.7071 -0.7071 0.7071 0.7071 496.8833 530.2256)">9</text></g><g clip-path="url(#SVGID_27_)"><text fill="#CDCCCC" font-family="'Arial-BoldMT'" font-size="16" transform="matrix(0.7071 -0.7071 0.7071 0.7071 505.1646 521.9443)">pm</text></g><g clip-path="url(#SVGID_27_)"><defs><rect id="SVGID_25_" width="600" height="620.28" x="1.798"/></defs><clipPath id="SVGID_28_"><use overflow="visible" xlink:href="#SVGID_25_"/></clipPath><g clip-path="url(#SVGID_28_)"><text fill="#CDCCCC" font-family="'Arial-BoldMT'" font-size="21.058" transform="matrix(-6.123234e-17 1 -1 -6.123234e-17 586.0171 287.5439)">6</text></g></g><g clip-path="url(#SVGID_27_)"><text fill="#CDCCCC" font-family="'Arial-BoldMT'" font-size="16" transform="matrix(-6.123234e-17 1 -1 -6.123234e-17 586.0171 299.2549)">pm</text></g><g clip-path="url(#SVGID_27_)"><text fill="#CDCCCC" font-family="'Arial-BoldMT'" font-size="16" transform="matrix(1 0 0 1 280.4814 21.3066)">Noon</text></g><g clip-path="url(#SVGID_27_)"><defs><rect id="SVGID_24_" width="600" height="620.28" x="1.798"/></defs><clipPath id="SVGID_29_"><use overflow="visible" xlink:href="#SVGID_24_"/></clipPath><g clip-path="url(#SVGID_29_)"><text fill="#CDCCCC" font-family="'Arial-BoldMT'" font-size="21.058" transform="matrix(-6.123234e-17 -1 1 -6.123234e-17 18.0654 326.2637)">6</text></g></g><g clip-path="url(#SVGID_27_)"><text fill="#CDCCCC" font-family="'Arial-BoldMT'" font-size="16" transform="matrix(-6.123234e-17 -1 1 -6.123234e-17 18.0654 314.5527)">am</text></g><g clip-path="url(#SVGID_27_)"><text fill="#CDCCCC" font-family="'Arial-BoldMT'" font-size="21.058" transform="matrix(0.7071 -0.7071 0.7071 0.7071 84.394 119.2139)">9</text></g><g clip-path="url(#SVGID_27_)"><text fill="#CDCCCC" font-family="'Arial-BoldMT'" font-size="16" transform="matrix(0.7071 -0.7071 0.7071 0.7071 92.6753 110.9331)">am</text></g><g clip-path="url(#SVGID_27_)"><text fill="#CDCCCC" font-family="'Arial-BoldMT'" font-size="21.058" transform="matrix(0.7071 0.7071 -0.7071 0.7071 78.5068 502.9531)">3</text></g><g clip-path="url(#SVGID_27_)"><text fill="#CDCCCC" font-family="'Arial-BoldMT'" font-size="16" transform="matrix(0.7071 0.7071 -0.7071 0.7071 86.7886 511.2334)">am</text></g><g clip-path="url(#SVGID_27_)"><text fill="#CDCCCC" font-family="'Arial-BoldMT'" font-size="21.058" transform="matrix(0.7071 0.7071 -0.7071 0.7071 490.1011 91.1172)">3</text></g><g clip-path="url(#SVGID_27_)"><text fill="#CDCCCC" font-family="'Arial-BoldMT'" font-size="16" transform="matrix(0.7071 0.7071 -0.7071 0.7071 498.3843 99.4004)">pm</text></g><g clip-path="url(#SVGID_27_)"><text fill="#CDCCCC" font-family="'Arial-BoldMT'" font-size="16" transform="matrix(1 0 0 1 267.0317 601.4219)">Midnight</text></g><g clip-path="url(#SVGID_27_)"><defs><path id="SVGID_23_" d="M230.807,307.466c0-38.813,31.464-70.276,70.278-70.276c38.812,0,70.277,31.463,70.277,70.276 c0,38.814-31.465,70.277-70.277,70.277C262.271,377.743,230.807,346.28,230.807,307.466 M30.487,307.466 c0,149.449,121.151,270.594,270.598,270.594c149.451,0,270.597-121.146,270.597-270.594 c0-149.448-121.146-270.593-270.597-270.593C151.638,36.873,30.487,158.018,30.487,307.466"/></defs><clipPath id="SVGID_30_"><use overflow="visible" xlink:href="#SVGID_23_"/></clipPath><line x1="37.583" x2="564.338" y1="237.261" y2="378.282" fill="none" stroke="#BABABA" stroke-width=".351" clip-path="url(#SVGID_30_)"/><line x1="371.725" x2="230.784" y1="43.794" y2="570.361" fill="none" stroke="#E6E6E6" stroke-width=".351" clip-path="url(#SVGID_30_)"/><line x1="64.955" x2="532.193" y1="171.372" y2="441.225" fill="none" stroke="#BABABA" stroke-width=".351" clip-path="url(#SVGID_30_)"/><line x1="437.725" x2="165.226" y1="71.277" y2="543.322" fill="none" stroke="#E6E6E6" stroke-width=".351" clip-path="url(#SVGID_30_)"/><line x1="37.97" x2="564.643" y1="378.43" y2="237.217" fill="none" stroke="#E6E6E6" stroke-width=".351" clip-path="url(#SVGID_30_)"/><line x1="230.397" x2="370.153" y1="44.338" y2="565.562" fill="none" stroke="#BABABA" stroke-width=".351" clip-path="url(#SVGID_30_)"/><line x1="65.229" x2="537.497" y1="444.1" y2="171.382" fill="none" stroke="#E6E6E6" stroke-width=".351" clip-path="url(#SVGID_30_)"/><line x1="164.395" x2="434.516" y1="71.268" y2="538.902" fill="none" stroke="#BABABA" stroke-width=".351" clip-path="url(#SVGID_30_)"/><line x1="28.864" x2="573.762" y1="307.708" y2="307.84" fill="none" stroke="#BABABA" stroke-width=".351" clip-path="url(#SVGID_30_)"/><line x1="107.777" x2="493.618" y1="114.642" y2="500.333" fill="none" stroke="#BABABA" stroke-width=".351" clip-path="url(#SVGID_30_)"/><line x1="37.583" x2="564.338" y1="237.261" y2="378.282" fill="none" stroke="#BABABA" stroke-width=".351" clip-path="url(#SVGID_30_)"/><line x1="64.955" x2="537.157" y1="171.372" y2="444.024" fill="none" stroke="#BABABA" stroke-width=".351" clip-path="url(#SVGID_30_)"/><line x1="230.397" x2="370.153" y1="44.338" y2="565.562" fill="none" stroke="#BABABA" stroke-width=".351" clip-path="url(#SVGID_30_)"/><line x1="164.395" x2="434.516" y1="71.268" y2="538.902" fill="none" stroke="#BABABA" stroke-width=".351" clip-path="url(#SVGID_30_)"/><line x1="28.864" x2="573.762" y1="307.708" y2="307.84" fill="none" stroke="#BABABA" stroke-width=".351" clip-path="url(#SVGID_30_)"/><line x1="107.777" x2="493.618" y1="114.642" y2="500.333" fill="none" stroke="#BABABA" stroke-width=".351" clip-path="url(#SVGID_30_)"/><line x1="230.619" x2="371.558" y1="570.685" y2="44.118" fill="none" stroke="#BABABA" stroke-width=".351" clip-path="url(#SVGID_30_)"/><line x1="165.059" x2="437.559" y1="543.645" y2="71.601" fill="none" stroke="#BABABA" stroke-width=".351" clip-path="url(#SVGID_30_)"/><line x1="37.804" x2="564.476" y1="378.753" y2="237.538" fill="none" stroke="#BABABA" stroke-width=".351" clip-path="url(#SVGID_30_)"/><line x1="65.065" x2="537.33" y1="444.422" y2="171.704" fill="none" stroke="#BABABA" stroke-width=".351" clip-path="url(#SVGID_30_)"/><line x1="300.919" x2="300.919" y1="580.141" y2="34.792" fill="none" stroke="#BABABA" stroke-width=".351" clip-path="url(#SVGID_30_)"/><line x1="108.515" x2="494.139" y1="500.52" y2="114.896" fill="none" stroke="#BABABA" stroke-width=".351" clip-path="url(#SVGID_30_)"/></g><g clip-path="url(#SVGID_27_)"><defs><rect id="SVGID_22_" width="600" height="620.28" x="1.798"/></defs><clipPath id="SVGID_31_"><use overflow="visible" xlink:href="#SVGID_22_"/></clipPath><g clip-path="url(#SVGID_31_)" opacity=".5"><g><defs><rect id="SVGID_21_" width=".702" height="210.449" x="300.734" y="377.743"/></defs><clipPath id="SVGID_32_"><use overflow="visible" xlink:href="#SVGID_21_"/></clipPath><line x1="301.085" x2="301.085" y1="377.743" y2="588.192" fill="none" stroke="#010202" stroke-width=".702" clip-path="url(#SVGID_32_)"/></g></g></g><g clip-path="url(#SVGID_27_)"><defs><rect id="SVGID_20_" width="600" height="620.28" x="1.798"/></defs><clipPath id="SVGID_33_"><use overflow="visible" xlink:href="#SVGID_20_"/></clipPath><g clip-path="url(#SVGID_33_)" opacity=".5"><g><defs><rect id="SVGID_19_" width="463.275" height="463.275" x="65.36" y="76.07"/></defs><clipPath id="SVGID_34_"><use overflow="visible" xlink:href="#SVGID_19_"/></clipPath></g></g><g clip-path="url(#SVGID_33_)" opacity=".5"><g><defs><rect id="SVGID_18_" width="421.159" height="421.158" x="86.457" y="97.216"/></defs><clipPath id="SVGID_35_"><use overflow="visible" xlink:href="#SVGID_18_"/></clipPath></g></g><g clip-path="url(#SVGID_33_)" opacity=".5"><g><defs><rect id="SVGID_17_" width="379.043" height="379.043" x="107.414" y="118.188"/></defs><clipPath id="SVGID_36_"><use overflow="visible" xlink:href="#SVGID_17_"/></clipPath></g></g><g clip-path="url(#SVGID_33_)" opacity=".5"><g><defs><rect id="SVGID_16_" width="336.928" height="336.927" x="128.47" y="139.376"/></defs><clipPath id="SVGID_37_"><use overflow="visible" xlink:href="#SVGID_16_"/></clipPath></g></g><g clip-path="url(#SVGID_33_)" opacity=".5"><g><defs><rect id="SVGID_15_" width="168.464" height="168.463" x="212.702" y="223.343"/></defs><clipPath id="SVGID_38_"><use overflow="visible" xlink:href="#SVGID_15_"/></clipPath></g></g><g clip-path="url(#SVGID_33_)" opacity=".5"><g><defs><rect id="SVGID_14_" width="294.812" height="294.812" x="149.679" y="160.302"/></defs><clipPath id="SVGID_39_"><use overflow="visible" xlink:href="#SVGID_14_"/></clipPath></g></g><g clip-path="url(#SVGID_33_)" opacity=".5"><g><defs><rect id="SVGID_13_" width="252.696" height="252.694" x="170.737" y="181.771"/></defs><clipPath id="SVGID_40_"><use overflow="visible" xlink:href="#SVGID_13_"/></clipPath></g></g><g clip-path="url(#SVGID_33_)" opacity=".5"><g><defs><rect id="SVGID_12_" width="210.58" height="210.58" x="193.205" y="202.418"/></defs><clipPath id="SVGID_41_"><use overflow="visible" xlink:href="#SVGID_12_"/></clipPath></g></g></g><g clip-path="url(#SVGID_27_)"><defs><rect id="SVGID_11_" width="600" height="620.28" x="1.798"/></defs><clipPath id="SVGID_42_"><use overflow="visible" xlink:href="#SVGID_11_"/></clipPath><g clip-path="url(#SVGID_42_)" opacity=".5"><g><defs><rect id="SVGID_10_" width="463.275" height="463.275" x="65.36" y="76.07"/></defs><clipPath id="SVGID_43_"><use overflow="visible" xlink:href="#SVGID_10_"/></clipPath></g></g><g clip-path="url(#SVGID_42_)" opacity=".5"><g><defs><rect id="SVGID_9_" width="421.159" height="421.158" x="86.457" y="97.216"/></defs><clipPath id="SVGID_44_"><use overflow="visible" xlink:href="#SVGID_9_"/></clipPath></g></g><g clip-path="url(#SVGID_42_)" opacity=".5"><g><defs><rect id="SVGID_8_" width="379.043" height="379.043" x="107.414" y="118.188"/></defs><clipPath id="SVGID_45_"><use overflow="visible" xlink:href="#SVGID_8_"/></clipPath></g></g><g clip-path="url(#SVGID_42_)" opacity=".5"><g><defs><rect id="SVGID_7_" width="336.928" height="336.927" x="128.47" y="139.376"/></defs><clipPath id="SVGID_46_"><use overflow="visible" xlink:href="#SVGID_7_"/></clipPath></g></g><g clip-path="url(#SVGID_42_)" opacity=".5"><g><defs><rect id="SVGID_6_" width="168.464" height="168.463" x="212.702" y="223.343"/></defs><clipPath id="SVGID_47_"><use overflow="visible" xlink:href="#SVGID_6_"/></clipPath></g></g><g clip-path="url(#SVGID_42_)" opacity=".5"><g><defs><rect id="SVGID_5_" width="294.812" height="294.812" x="149.679" y="160.302"/></defs><clipPath id="SVGID_48_"><use overflow="visible" xlink:href="#SVGID_5_"/></clipPath></g></g><g clip-path="url(#SVGID_42_)" opacity=".5"><g><defs><rect id="SVGID_4_" width="252.696" height="252.694" x="170.737" y="181.771"/></defs><clipPath id="SVGID_49_"><use overflow="visible" xlink:href="#SVGID_4_"/></clipPath></g></g><g clip-path="url(#SVGID_42_)" opacity=".5"><g><defs><rect id="SVGID_3_" width="210.58" height="210.58" x="193.205" y="202.418"/></defs><clipPath id="SVGID_50_"><use overflow="visible" xlink:href="#SVGID_3_"/></clipPath></g></g></g><g clip-path="url(#SVGID_27_)"><defs><rect id="SVGID_2_" width="600" height="620.28" x="1.798"/></defs><clipPath id="SVGID_51_"><use overflow="visible" xlink:href="#SVGID_2_"/></clipPath></g><g clip-path="url(#SVGID_27_)"><defs><rect id="SVGID_1_" width="600" height="620.28" x="1.798"/></defs><clipPath id="SVGID_52_"><use overflow="visible" xlink:href="#SVGID_1_"/></clipPath></g></g></svg>